<?xml version="1.0" encoding="utf-8"?>
<!-- Generator: Adobe Illustrator 16.0.0, SVG Export Plug-In . SVG Version: 6.00 Build 0)  -->
<!DOCTYPE svg PUBLIC "-//W3C//DTD SVG 1.1//EN" "http://www.w3.org/Graphics/SVG/1.1/DTD/svg11.dtd">
<svg version="1.1" id="Layer_1" xmlns="http://www.w3.org/2000/svg" xmlns:xlink="http://www.w3.org/1999/xlink" x="0px" y="0px"
	 width="542.973px" height="481.476px" viewBox="0 0 542.973 481.476" enable-background="new 0 0 542.973 481.476"
	 xml:space="preserve">
<g>
	<path d="M277.936,457.946c-57.54,0-111.635-22.406-152.322-63.094s-63.093-94.781-63.093-152.322
		c0-57.54,22.407-111.635,63.093-152.322c40.687-40.686,94.782-63.093,152.322-63.093s111.636,22.407,152.321,63.093
		c40.688,40.687,63.094,94.782,63.094,152.322c0,57.541-22.406,111.636-63.094,152.322
		C389.571,435.54,335.476,457.946,277.936,457.946z M277.936,37.116c-113.266,0-205.415,92.149-205.415,205.415
		c0,113.267,92.149,205.416,205.415,205.416c113.267,0,205.415-92.148,205.415-205.416
		C483.351,129.265,391.202,37.116,277.936,37.116z"/>
</g>
<path d="M197.282,79.942v267.125l79,73.803l79-73.801V79.942H197.282z M305.575,370.888c-0.652,3.738-5.254,13.412-23.729,17.336
	c-21.145,4.492-31.467-10.402-34.469-16.84c-3.002-6.439,2.797-3.02,2.797-3.02c11.6,4.846,22.328-0.936,28.458-2.938
	c6.125-2.002,10.143-2.172,15.057-1.955s10.072,2.447,11.506,3.82C306.628,368.667,305.575,370.888,305.575,370.888z
	 M246.813,356.854c0.684-3.732,5.367-13.365,23.873-17.137c21.182-4.314,31.379,10.664,34.327,17.129
	c2.949,6.463-2.822,2.994-2.822,2.994c-11.561-4.943-22.336,0.75-28.479,2.701c-6.145,1.951-10.162,2.086-15.074,1.828
	s-10.051-2.531-11.475-3.916C245.743,359.069,246.813,356.854,246.813,356.854z M349.282,323.485l-73-0.002h-73v-39.162l146,0.002
	V323.485z M349.282,274.028h-146v-33.707l146,0.002V274.028z M349.282,230.029l-146-0.001v-37.031l146,0.002V230.029z
	 M203.282,182.703v-81.011h146v81.012L203.282,182.703z"/>
<g>
	<polygon points="280.577,170.738 274.79,170.738 256.129,170.738 256.129,178.703 274.79,178.703 280.577,178.703 299.239,178.703 
		299.239,170.738 	"/>
	<polygon points="288.655,160.119 280.577,160.119 274.79,160.119 266.713,160.119 257.362,166.976 274.79,166.976 280.577,166.976 
		298.005,166.976 	"/>
	<path d="M285.337,108.072c0,0-1.994-0.654-4.615-0.946c-0.74-0.082-1.861-0.174-3.038-0.174c-1.178,0-2.297,0.092-3.039,0.174
		c-2.621,0.292-4.613,0.946-4.613,0.946c-9.627,3.165-8.193,11.843-6.051,14.866c2.121,2.993,3.061,6.194,4.076,10.36
		c1.918,7.89,1.891,18.278,1.891,18.278c0.217,4.017-1.008,3.956-1.268,4.938h7.516h2.559h7.932
		c-0.258-0.981-1.484-0.921-1.266-4.938c0,0-0.029-10.389,1.891-18.278c1.016-4.166,1.955-7.367,4.074-10.36
		C293.528,119.915,294.962,111.237,285.337,108.072z"/>
</g>
</svg>
